HIERARCHY
ROOT Hips
{
	OFFSET 0.000000 0.000000 0.000000
	CHANNELS 6 Xposition Yposition Zposition Zrotation Yrotation Xrotation
	JOINT LHipJoint
	{
		OFFSET 0.000000 0.000000 0.000000
		CHANNELS 3 Zrotation Yrotation Xrotation
		JOINT LeftUpLeg
		{
			OFFSET 1.363060 -1.794630 0.839290
			CHANNELS 3 Zrotation Yrotation Xrotation
			JOINT LeftLeg
			{
				OFFSET 2.448110 -6.726130 0.000000
				CHANNELS 3 Zrotation Yrotation Xrotation
				JOINT LeftFoot
				{
					OFFSET 2.562200 -7.039590 0.000000
					CHANNELS 3 Zrotation Yrotation Xrotation
					JOINT LeftToeBase
					{
						OFFSET 0.157640 -0.433110 2.322550
						CHANNELS 3 Zrotation Yrotation Xrotation
						End Site
						{
							OFFSET 0.000000 0.000000 0.000000
						}
					}
				}
			}
		}
	}
	JOINT RHipJoint
	{
		OFFSET 0.000000 0.000000 0.000000
		CHANNELS 3 Zrotation Yrotation Xrotation
		JOINT RightUpLeg
		{
			OFFSET -1.305520 -1.794630 0.839290
			CHANNELS 3 Zrotation Yrotation Xrotation
			JOINT RightLeg
			{
				OFFSET -2.542530 -6.985550 0.000000
				CHANNELS 3 Zrotation Yrotation Xrotation
				JOINT RightFoot
				{
					OFFSET -2.568260 -7.056230 0.000000
					CHANNELS 3 Zrotation Yrotation Xrotation
					JOINT RightToeBase
					{
						OFFSET -0.164730 -0.452590 2.363150
						CHANNELS 3 Zrotation Yrotation Xrotation
						End Site
						{
							OFFSET 0.000000 0.000000 0.000000
						}
					}
				}
			}
		}
	}
	JOINT LowerBack
	{
		OFFSET 0.000000 0.000000 0.000000
		CHANNELS 3 Zrotation Yrotation Xrotation
		JOINT Spine
		{
			OFFSET 0.028270 2.035590 -0.193380
			CHANNELS 3 Zrotation Yrotation Xrotation
			JOINT Spine1
			{
				OFFSET 0.056720 2.048850 -0.042750
				CHANNELS 3 Zrotation Yrotation Xrotation
				JOINT Neck
				{
					OFFSET 0.000000 0.000000 0.000000
					CHANNELS 3 Zrotation Yrotation Xrotation
					JOINT Neck1
					{
						OFFSET -0.054170 1.746240 0.172020
						CHANNELS 3 Zrotation Yrotation Xrotation
						JOINT Head
						{
							OFFSET 0.104070 1.761360 -0.123970
							CHANNELS 3 Zrotation Yrotation Xrotation
							End Site
							{
								OFFSET 0.000000 0.000000 0.000000
							}
						}
					}
				}
				JOINT LeftShoulder
				{
					OFFSET 0.000000 0.000000 0.000000
					CHANNELS 3 Zrotation Yrotation Xrotation
					JOINT LeftArm
					{
						OFFSET 3.362410 1.200890 -0.311210
						CHANNELS 3 Zrotation Yrotation Xrotation
						JOINT LeftForeArm
						{
							OFFSET 4.983000 -0.000000 -0.000000
							CHANNELS 3 Zrotation Yrotation Xrotation
							JOINT LeftHand
							{
								OFFSET 3.483560 -0.000000 -0.000000
								CHANNELS 3 Zrotation Yrotation Xrotation
								JOINT LeftFingerBase
								{
									OFFSET 0.000000 0.000000 0.000000
									CHANNELS 3 Zrotation Yrotation Xrotation
									JOINT LeftHandIndex1
									{
										OFFSET 0.715260 -0.000000 -0.000000
										CHANNELS 3 Zrotation Yrotation Xrotation
										End Site
										{
											OFFSET 0.000000 0.000000 0.000000
										}
									}
								}
								JOINT LThumb
								{
									OFFSET 0.000000 0.000000 0.000000
									CHANNELS 3 Zrotation Yrotation Xrotation
									End Site
									{
										OFFSET 0.000000 0.000000 0.000000
									}
								}
							}
						}
					}
				}
				JOINT RightShoulder
				{
					OFFSET 0.000000 0.000000 0.000000
					CHANNELS 3 Zrotation Yrotation Xrotation
					JOINT RightArm
					{
						OFFSET -3.136600 1.374050 -0.404650
						CHANNELS 3 Zrotation Yrotation Xrotation
						JOINT RightForeArm
						{
							OFFSET -5.241900 -0.000000 -0.000000
							CHANNELS 3 Zrotation Yrotation Xrotation
							JOINT RightHand
							{
								OFFSET -3.444170 -0.000000 -0.000000
								CHANNELS 3 Zrotation Yrotation Xrotation
								JOINT RightFingerBase
								{
									OFFSET 0.000000 0.000000 0.000000
									CHANNELS 3 Zrotation Yrotation Xrotation
									JOINT RightHandIndex1
									{
										OFFSET -0.622530 -0.000000 -0.000000
										CHANNELS 3 Zrotation Yrotation Xrotation
										End Site
										{
											OFFSET 0.000000 0.000000 0.000000
										}
									}
								}
								JOINT RThumb
								{
									OFFSET 0.000000 0.000000 0.000000
									CHANNELS 3 Zrotation Yrotation Xrotation
									End Site
									{
										OFFSET 0.000000 0.000000 0.000000
									}
								}
							}
						}
					}
				}
			}
		}
	}
}
MOTION
Frames: 9
Frame Time: 0.008333
2.070272 -1.776853 19.463413 5.241432 2.144258 -9.064710 2.482524 2.544040 2.033282 -7.483053 8.670046 1.028056 -1.970179 3.027904 -18.131952 2.991587 -25.663202 20.672192 -1.013477 -19.268446 5.075822 0.669346 -1.409771 -7.556575 1.150959 1.188259 -11.814883 2.832232 -0.552720 -11.810137 0.270413 8.183487 -7.271934 -1.241140 2.122766 34.971195 -5.277832 0.856432 0.556795 -1.171810 0.408234 -0.049469 -5.060182 0.548472 2.539685 -0.213611 0.297100 2.096050 -2.778473 -7.598379 17.034077 2.197831 2.233701 -4.099648 1.271824 -1.544061 -0.171122 28.089315 -19.991693 3.264376 -3.170747 0.860885 -3.629196 0.351693 -0.805188 2.576342 -1.073124 -11.838435 -2.051987 0.803836 0.000000 0.000000 -4.454120 -51.605042 79.334999 0.060644 -2.004453 -0.232576 -7.079437 -14.785725 5.246242 -0.027766 5.474042 -0.434801 -0.876363 -0.268654 0.497661 29.633057 -16.883724 12.845387 -0.567252 0.000000 0.000000 15.493784 -6.615042 -42.517849
2.093713 -1.793802 19.597635 5.198926 2.182408 -9.053312 2.406621 2.529690 2.023297 -7.560983 8.689119 1.250043 -1.903877 3.060379 -18.064610 2.961029 -25.648941 20.778017 -1.016942 -19.310364 4.843632 0.663701 -1.412200 -7.600920 1.121449 1.238238 -11.845841 2.732389 -0.730840 -11.164466 0.252048 8.439734 -7.238338 -1.264436 2.197392 35.242481 -5.191898 0.814702 0.517290 -1.159238 0.423264 -0.073275 -5.085004 0.556437 2.559267 -0.250198 0.282114 2.001226 -2.774708 -7.583000 17.019129 2.178810 2.234750 -4.127601 1.287246 -1.573986 -0.168896 27.893467 -19.894176 3.656704 -3.068955 0.599540 -3.620414 0.368916 -0.807122 2.356076 -1.002104 -11.940030 -2.071913 0.815630 0.000000 0.000000 -4.551546 -51.662006 79.785294 0.130118 -1.949461 -0.245345 -7.235317 -14.961428 5.302777 -0.061891 5.459421 -0.412110 -0.887015 -0.255445 0.431060 29.678949 -16.991661 13.245313 -0.581813 0.000000 0.000000 15.385078 -6.395823 -43.016869
2.121802 -1.798666 19.823572 5.180665 2.264332 -8.991073 2.369794 2.536162 2.034961 -7.580279 8.755527 1.562829 -1.826967 3.128641 -17.944504 2.930501 -25.648319 20.879025 -1.023145 -19.363127 4.582161 0.633335 -1.419788 -7.663932 1.062173 1.296130 -11.889737 2.627359 -0.900413 -10.485703 0.236000 8.721333 -7.310200 -1.303434 2.236327 35.374516 -5.109721 0.762829 0.448364 -1.148220 0.435989 -0.091512 -5.105463 0.566628 2.570746 -0.287926 0.265479 1.902935 -2.771517 -7.567706 16.999334 2.157398 2.235047 -4.154530 1.304166 -1.602774 -0.166674 27.700043 -19.796650 4.053713 -2.962814 0.343463 -3.610948 0.386366 -0.807804 2.148096 -0.924654 -12.035504 -2.087425 0.828158 0.000000 0.000000 -4.633539 -51.685978 80.269211 0.205689 -1.887564 -0.256645 -7.362084 -15.126893 5.367115 -0.076837 5.447734 -0.380545 -0.895487 -0.239294 0.379841 29.782616 -17.064739 13.689590 -0.593468 0.000000 0.000000 15.249631 -6.169806 -43.444511
2.144718 -1.811396 20.058527 5.158311 2.343176 -8.934780 2.322985 2.538233 2.042226 -7.608033 8.815139 1.862507 -1.752305 3.203507 -17.821146 2.903200 -25.636181 21.005970 -1.025597 -19.400455 4.367967 0.621847 -1.418670 -7.716787 1.030186 1.374388 -11.928878 2.522284 -1.065335 -9.775100 0.225794 9.021180 -7.362840 -1.333601 2.298427 35.601246 -4.999637 0.718061 0.409237 -1.134125 0.451566 -0.106627 -5.122944 0.577775 2.584518 -0.322572 0.250586 1.809038 -2.766145 -7.549047 16.980923 2.137417 2.236564 -4.178977 1.324629 -1.628889 -0.163881 27.524227 -19.693712 4.470503 -2.849494 0.096343 -3.599678 0.404506 -0.806686 1.961736 -0.835286 -12.111959 -2.093652 0.842416 0.000000 0.000000 -4.675324 -51.659458 80.799751 0.288022 -1.820385 -0.266186 -7.458020 -15.280795 5.445088 -0.066408 5.443005 -0.342359 -0.902796 -0.221765 0.335261 29.955940 -17.106001 14.178017 -0.603009 0.000000 0.000000 15.231866 -5.893238 -43.763477
2.182489 -1.825496 20.322893 5.139047 2.428206 -8.860261 2.285140 2.554271 2.062798 -7.584890 8.906590 2.255095 -1.661908 3.346128 -17.514292 2.896293 -25.627579 21.170216 -1.025730 -19.488037 4.025350 0.559590 -1.434506 -7.826300 0.896446 1.450357 -12.005103 2.398138 -1.261216 -9.002722 0.225675 9.284229 -7.492364 -1.362381 2.351081 35.986862 -4.833678 0.659836 0.340050 -1.122847 0.457860 -0.139428 -5.148403 0.587026 2.580763 -0.367032 0.228589 1.699791 -2.767416 -7.542923 16.938869 2.105577 2.234036 -4.213747 1.334149 -1.662040 -0.163574 27.297514 -19.611805 4.838480 -2.748679 -0.163165 -3.592738 0.420487 -0.807277 1.745627 -0.764478 -12.237330 -2.119254 0.853584 0.000000 0.000000 -4.761466 -51.675209 81.281853 0.360452 -1.757765 -0.277481 -7.575219 -15.435827 5.505345 -0.024566 5.450642 -0.314163 -0.911833 -0.198546 0.325953 30.226469 -17.030390 14.871392 -0.604909 0.000000 0.000000 15.426881 -5.505339 -43.733727
2.211213 -1.817171 20.711004 5.119962 2.570458 -8.737601 2.286469 2.583639 2.099874 -7.510220 9.037054 2.713366 -1.527740 3.560662 -17.016592 2.905946 -25.588259 21.404039 -1.016220 -19.555655 3.691623 0.523951 -1.440917 -7.935911 0.827725 1.554218 -12.056962 2.270031 -1.494790 -8.215886 0.226911 9.481318 -7.848272 -1.417446 2.320180 36.161942 -4.640136 0.597240 0.268520 -1.104319 0.471584 -0.162822 -5.165058 0.601075 2.597512 -0.401684 0.213186 1.594665 -2.770616 -7.529855 16.902620 2.076068 2.233254 -4.245519 1.348604 -1.691899 -0.162439 27.076342 -19.530546 5.201122 -2.658150 -0.432003 -3.588693 0.435037 -0.808541 1.491511 -0.714761 -12.405759 -2.172391 0.860385 0.000000 0.000000 -4.932481 -51.807285 81.651199 0.411952 -1.714391 -0.295622 -7.790092 -15.619929 5.505815 -0.028386 5.404246 -0.321104 -0.930731 -0.182958 0.239991 29.855059 -17.183107 15.162474 -0.615396 0.000000 0.000000 15.093802 -5.451396 -44.186546
2.224540 -1.834593 21.019630 5.072485 2.696471 -8.614647 2.283120 2.607055 2.129070 -7.435248 9.145556 3.127314 -1.395141 3.767485 -16.454571 2.926392 -25.604286 21.603224 -1.016754 -19.665947 3.178511 0.428659 -1.466467 -8.091341 0.686178 1.605140 -12.243916 2.118778 -1.726246 -7.494503 0.209743 9.570516 -8.093021 -1.460472 2.326763 36.450516 -4.488187 0.541951 0.207537 -1.084056 0.488785 -0.180921 -5.176540 0.613880 2.607157 -0.441524 0.193996 1.484606 -2.773940 -7.510143 16.871021 2.050584 2.235496 -4.272820 1.369846 -1.715464 -0.159881 26.882208 -19.442209 5.617748 -2.552840 -0.680151 -3.580386 0.450197 -0.806086 1.278047 -0.644477 -12.530864 -2.206841 0.871847 0.000000 0.000000 -5.005888 -51.827564 82.114243 0.479132 -1.658027 -0.307930 -7.911837 -15.770952 5.528790 0.002382 5.346934 -0.323057 -0.941882 -0.164868 0.177785 29.571224 -17.320576 15.491785 -0.623176 0.000000 0.000000 14.748395 -5.407652 -44.499924
2.235071 -1.851700 21.331652 5.019982 2.829574 -8.490157 2.282811 2.631961 2.161373 -7.346057 9.246016 3.547161 -1.256161 3.988838 -15.722691 2.961941 -25.630436 21.867598 -1.010641 -19.741034 2.737521 0.383724 -1.472796 -8.219418 0.620192 1.678455 -12.423089 1.965831 -1.953801 -6.808082 0.181967 9.622017 -8.339794 -1.498131 2.358511 36.803360 -4.318643 0.499252 0.174373 -1.058255 0.512166 -0.192404 -5.181699 0.628971 2.623538 -0.474990 0.179252 1.382784 -2.773185 -7.483756 16.845549 2.029393 2.240417 -4.294593 1.398788 -1.733371 -0.156127 26.721256 -19.344130 6.067306 -2.436570 -0.913416 -3.569035 0.466390 -0.800782 1.101640 -0.554401 -12.624842 -2.226227 0.886095 0.000000 0.000000 -5.012690 -51.763084 82.648933 0.558248 -1.592593 -0.316874 -7.979360 -15.904004 5.569004 0.060392 5.283741 -0.324207 -0.952700 -0.147011 0.115383 29.249914 -17.481001 15.783175 -0.630395 0.000000 0.000000 14.394697 -5.396279 -44.818951
2.253365 -1.892958 21.559229 4.933921 2.983415 -8.368098 2.271310 2.657553 2.194362 -7.262987 9.311230 3.875979 -1.083957 4.276149 -14.633598 3.092097 -25.778954 22.210272 -0.989175 -19.840469 2.193386 0.302716 -1.495271 -8.415773 0.404394 1.718715 -12.700560 1.786405 -2.207099 -6.080770 0.168631 9.816575 -8.447815 -1.528840 2.388669 37.032581 -4.144201 0.453995 0.119727 -1.030849 0.539436 -0.202607 -5.179422 0.647890 2.649779 -0.504928 0.170201 1.281238 -2.771780 -7.453012 16.821806 2.005529 2.244401 -4.319647 1.425628 -1.752209 -0.153289 26.539198 -19.257589 6.502119 -2.326100 -1.153788 -3.561054 0.480145 -0.798670 0.889883 -0.491749 -12.772564 -2.271487 0.895808 0.000000 0.000000 -5.114401 -51.809444 83.056839 0.606661 -1.546311 -0.332346 -8.142037 -16.052370 5.566996 0.131791 5.204719 -0.341933 -0.966250 -0.127503 0.081543 29.009382 -17.537012 16.338327 -0.630138 0.000000 0.000000 14.270716 -5.252756 -44.891529
